PathFileType	4	(X/Y/Z)	/home/abdul/Desktop/myosuite/custom_workspace/IK/output/S19_12_2.trc
DataRate	CameraRate	NumFrames	NumMarkers	Units	OrigDataRate	OrigDataStartFrame	OrigNumFrames
200.0	200.0	88	3	mm	200.0	738	1474
Frame#	Time	V_Shoulder			V_Elbow			V_Wrist		
		X1	Y1	Z1	X2	Y2	Z2	X3	Y3	Z3

738	3.685	-96.09061121712254	704.2472605658983	328.9441947128651				-81.66578370758317	415.83178568847063	230.58023956630245
739	3.69	-96.11507275769112	704.1559456162021	328.8862474731025				-81.77172985298127	414.29742189511103	229.57555665552695
740	3.695	-96.14086192651287	704.0620074545005	328.8276325017759				-81.88050754517906	412.75401877313334	228.55860008426055
741	3.7	-96.16795815870411	703.9653964992058	328.7683532098393				-81.99213703024975	411.2023571691078	227.52964533505394
742	3.705	-96.19634051071291	703.8660650749786	328.7084130133854				-82.10663684546293	409.64322095738123	226.48897475924105
743	3.71	-96.22598768527855	703.763967468089	328.6478153456128				-82.22402363063335	408.0773955172317	225.43687734347316
744	3.715	-96.2568780559467	703.65905997794	328.5865636694875				-82.3443119459788	406.5056662120862	224.37364845479163
745	3.72	-96.28898969110611	703.5513009647105	328.52466149105925				-82.46751409681221	404.92881687527836	223.29958956472154
746	3.725	-96.32230037751519	703.440650893083	328.4621123733911				-82.59363996540446	403.34762830678085	222.21500795301978
747	3.73	-96.35678764328895	703.3270723720283	328.3989199510576				-82.72269685036505	401.7628767852889	221.12021639186128
748	3.735	-96.39242878031958	703.2105301906255	328.3350879451643				-82.85468931389764	400.1753325999551	220.01553281139581
749	3.74	-96.42920086610552	703.0909913499119	328.27062017883935				-82.98961903729402	398.58575860599217	218.9012799477506
750	3.745	-96.46708078496714	702.9684250907536	328.20552059314514				-83.12748468503707	396.99490880825215	217.77778497469376
751	3.75	-96.50604524862864	702.8428029177454	328.1397932633567				-83.26828177788529	395.403526976776	216.64537912030636
752	3.755	-96.54607081614897	702.7140986191504	328.07344241554944				-83.41200257531358	393.8123452981756	215.50439727013776
753	3.76	-96.58713391318626	702.5822882828998	328.00647244344054				-83.55863596768224	392.2220830665667	214.35517755843682
754	3.765	-96.62921085058355	702.4473503086818	327.9388879254229				-83.70816737850211	390.6334454176114	213.19806094916197
755	3.77	-96.67227784226452	702.3092654161541	327.87069364173186				-83.86057867715539	389.04712210906484	212.0333908085725
756	3.775	-96.71631102243195	702.1680166493192	327.80189459168304				-84.01584810242147	387.4637863510355	210.86151247129345
757	3.78	-96.76128646206234	702.0235893771163	327.7324960109167				-84.17395019714257	385.88409368898056	209.68277280182372
758	3.785	-96.80718018469368	701.8759712902842	327.66250338858646				-84.33485575434729	384.30868094225406	208.49751975352422
759	3.79	-96.85396818150468	701.7251523945564	327.5919224844258				-84.49853177512848	382.73816520081607	207.3061019271746
760	3.795	-96.9016264256863	701.5711250002587	327.5207593456292				-84.6649414385497	381.17314288249395	206.1088681312287
761	3.8	-96.95013088610862	701.4138837083852	327.44902032348097				-84.83404408382621	379.61418885295643	204.90616694592424
762	3.805	-96.99945754028782	701.2534253932304	327.37671208966674				-85.00579520499761	378.06185561033055	203.6983462934151
763	3.81	-97.04958238666056	701.0897491816689	327.3038416522018				-85.18014645827591	376.51667253615074	202.4857530160919
764	3.815	-97.1004814561744	700.9228564291701	327.23041637091177				-85.35704568221783	374.979145214086	201.26873246523985
765	3.82	-97.15213082320508	700.752750692647	327.1564439723999				-85.53643693083134	373.44975481764163	200.04762810215192
766	3.825	-97.20450661581303	700.5794377002408	327.08193256443815				-85.7182605196868	371.92895756778165	198.82278111376894
767	3.83	-97.25758502535355	700.4029253181467	327.0068906497181				-85.90245308506034	370.4171842611636	197.59453004485738
768	3.835	-97.31134231545575	700.2232235145917	326.9313271389007				-86.08894765609281	368.9148398694248	196.36321044866168
769	3.84	-97.36575483038787	700.0403443210779	326.8552513629031				-86.27767373990181	367.4223032097044	195.12915455787783
770	3.845	-97.4207990028276	699.8543017910091	326.77867308436464				-86.46855741953695	365.9399266863322	193.89269097769392
771	3.85	-97.47645136105673	699.6651119558215	326.7016025082332				-86.66152146462068	364.46803610336667	192.65414440252675
772	3.855	-97.53268853560166	699.4727927787432	326.6240502914167				-86.8564854544677	363.0069305474161	191.41383535795762
773	3.86	-97.58948726534184	699.2773641063062	326.5460275514472				-87.0533659134268	361.5568823399359	190.17207996922912
774	3.865	-97.64682440310918	699.0788476177422	326.4675458741028				-87.25207645813956	360.1181370579576	188.92918975751635
775	3.87	-97.70467692080292	698.8772667723928	326.3886173199423				-87.45252795636081	358.69091362197764	187.68547146502522
776	3.875	-97.76302191404459	698.6726467552631	326.30925442970283				-87.65462869693758	357.27540444950876	186.44122690980046
777	3.88	-97.82183660639846	698.4650144208559	326.2294702285191				-87.85828457049405	355.8717756725877	185.19675287095117
778	3.885	-97.88109835318478	698.2543982354177	326.1492782289208				-88.06339926032419	354.4801674173269	183.95234100481485
779	3.89	-97.94078464491172	698.0408282177351	326.06869243257216				-88.26987444294716	353.1006941434075	182.7082777923943
780	3.895	-98.00087311035323	697.8243358786141	325.9877273307175				-88.47760999773658	351.73344504122974	181.46484451820567
781	3.9	-98.06134151930137	697.6049541591784	325.906397903302				-88.68650422499252	350.3784844842694	180.22231728047882
782	3.905	-98.12216778501947	697.3827173681249	325.82471961673804				-88.896454071784	349.03585253403475	178.98096703245275
783	3.91	-98.18332996642523	697.1576611180664	325.74270842029335				-89.1073553648522	347.705565494877	177.74105965430698
784	3.915	-98.24480627003102	696.9298222611001	325.66038074108				-89.31910304982765	346.38761651578193	176.502856055072
785	3.92	-98.3065750516693	696.699238823731	325.57775347762504				-89.53159143598269	345.0819762361607	175.26661230366244
786	3.925	-98.36861481803128	696.4659499412847	325.494843992011				-89.74471444570841	343.78859347256196	174.03257978798308
787	3.93	-98.43090422804597	696.229995791939	325.4116701005753				-89.95836586787819	342.50739594315064	172.80100540086653
788	3.935	-98.49342209412661	695.9914175305006	325.3282500631622				-90.17243961423496	341.23829102673307	171.57213175141683
789	3.94	-98.55614738331165	695.7502572220556	325.2446025709259				-90.38682997791699	339.9811665530665	170.3461974001553
790	3.945	-98.6190592183264	695.5065577756168	325.16074673268616				-90.60143189321835	338.73589162115786	169.12343711619408
791	3.95	-98.68213687859077	695.2603628778883	325.07670205984294				-90.81614119566457	337.50231744224806	167.90408215450293
792	3.955	-98.74535980119849	695.011716927267	324.9924884498591				-91.03085488147077	336.28027820417685	166.68836055118172
793	3.96	-98.80870758189165	694.760664968197	324.90812616832665				-91.24547136544086	335.0695919538489	165.47649743451268
794	3.965	-98.8721599760542	694.5072526259892	324.8236358296341				-91.45989073635911	333.8700614945526	164.26871534943703
795	3.97	-98.93569689974709	694.2515260422147	324.7390383762566				-91.67401500892336	332.6814752949391	163.0652345929854
796	3.975	-98.9992984308066	693.9935318107804	324.654355056696				-91.88774837126797	331.50360840652877	161.8662735580893
797	3.98	-99.06294481002658	693.7333169147881	324.56960740210053				-92.10099742712876	330.3362233866999	160.67204908311288
798	3.985	-99.1266164424444	693.4709286642761	324.48481720159936				-92.31367143170772	329.1790712242008	159.4827768043715
799	3.99	-99.19029389874875	693.2064146349385	324.4000064763889				-92.52568252030457	328.0318922643391	158.29867150884434
800	3.995	-99.25395791682742	692.9398226079123	324.315197452614				-92.73694592879461	326.8944171311148	157.11994748424672
801	4.0	-99.31758940347085	692.6712005107237	324.2304125330896				-92.94738020504693	325.76636764369607	155.94681886360024
802	4.005	-99.38116943624685	692.4005963594713	324.14567426791206				-93.15690741039501	324.6474577247735	154.77949996142928
803	4.01	-99.44467926556001	692.1280582023304	324.0610053240136				-93.3654533102924	323.5373942984771	153.61820559871558
804	4.015	-99.50810031690885	691.8536340644522	323.97642845371655				-93.57294755330898	322.435878175693	152.4631514137664
805	4.02	-99.57141419335147	691.5773718943256	323.89196646234774				-93.77932383764954	321.3426049247809	151.31455415618794
806	4.025	-99.63460267818964	691.2993195116736	323.80764217497546				-93.98452006440421	320.25726572585637	150.172631961209
807	4.03	-99.6976477378801	691.0195245569436	323.7234784023374				-94.18847847677162	319.17954820697446	149.03760460167103
808	4.035	-99.76053152518007	690.7380344424496	323.6394979060265				-94.39114578452865	318.10913726072283	147.9096937150822
809	4.04	-99.82323638253247	690.454896305222	323.55572336301003				-94.59247327305589	317.0457158399066	146.7891230032347
810	4.045	-99.88574484569529	690.1701569616142	323.4721773295539				-94.79241689626595	315.98896573118293	145.67611840199734
811	4.05	-99.94803964761773	689.8838628637117	323.3888822046335				-94.99093735282206	314.93856830567347	144.57090821902335
812	4.055	-100.0101037225648	689.5960600575814	323.3058601929072				-95.1880001450765	313.89420524575723	143.4737232372542
813	4.06	-100.0719202104898	689.3067941434048	323.2231332673387				-95.38357562020282	312.85555924741203	142.3847967822537
814	4.065	-100.13347246165347	689.0161102375214	323.14072313155003				-95.57763899304246	311.82231469763474	141.3043647515716
815	4.07	-100.19474404148711	688.7240529364158	323.05865118199307				-95.77017035023522	310.79415832663017	140.23266560451333
816	4.075	-100.25571873569487	688.4306662826716	322.9769384700267				-95.96115463525383	309.7707798346072	139.16994031087688
817	4.08	-100.31638055559011	688.1359937329122	322.8956056639899				-96.15058161401558	308.7518724931638	138.11643225741602
818	4.085	-100.3767137436588	687.8400781277468	322.81467301136104				-96.33844582079907	307.7371337213782	137.07238711099149
819	4.09	-100.43670277934116	687.542961663733	322.73416030109524				-96.5247464842512	306.7262656368468	136.03805263758414
820	4.095	-100.49633238502274	687.2446858673678	322.65408682623297				-96.70948743332819	305.7189755820259	135.0136784765621
821	4.1	-100.5555875322237	686.9452915711105	322.57447134687277				-96.89267698307594	304.7149766263385	133.99951586981754
822	4.105	-100.6144534479743	686.6448188914386	322.495332053602				-97.07432780021742	303.71398804460057	132.9958173456163
823	4.11	-100.67291562136325	686.3433072089393	322.41668653148014				-97.25445674858003	302.7157357724017	132.00283635723582
824	4.115	-100.7309598102451	686.0407951504268	322.3385517246673				-97.43308471446227	301.7199528391486	131.02082687670045
825	4.12	-100.78857204809033	685.73732057308	322.2609439017938				-97.61023641210787	300.7263797795325	130.0500429441587
